<svg width="24" height="24" viewBox="0 0 24 24" fill="none" xmlns="http://www.w3.org/2000/svg">
<path fill-rule="evenodd" clip-rule="evenodd" d="M9.50002 19C9.89785 19 10.2794 19.158 10.5607 19.4393C10.842 19.7206 11 20.1021 11 20.5C11 20.8978 10.842 21.2793 10.5607 21.5606C10.2794 21.8419 9.89785 22 9.50002 22C9.1022 22 8.72067 21.8419 8.43936 21.5606C8.15806 21.2793 8.00002 20.8978 8.00002 20.5C8.00002 20.1021 8.15806 19.7206 8.43936 19.4393C8.72067 19.158 9.1022 19 9.50002 19ZM16.5 19C16.8978 19 17.2794 19.158 17.5607 19.4393C17.842 19.7206 18 20.1021 18 20.5C18 20.8978 17.842 21.2793 17.5607 21.5606C17.2794 21.8419 16.8978 22 16.5 22C16.1022 22 15.7207 21.8419 15.4394 21.5606C15.1581 21.2793 15 20.8978 15 20.5C15 20.1021 15.1581 19.7206 15.4394 19.4393C15.7207 19.158 16.1022 19 16.5 19ZM9.50002 20C9.36741 20 9.24024 20.0527 9.14647 20.1464C9.0527 20.2402 9.00002 20.3674 9.00002 20.5C9.00002 20.6326 9.0527 20.7598 9.14647 20.8535C9.24024 20.9473 9.36741 21 9.50002 21C9.63263 21 9.75981 20.9473 9.85358 20.8535C9.94734 20.7598 10 20.6326 10 20.5C10 20.3674 9.94734 20.2402 9.85358 20.1464C9.75981 20.0527 9.63263 20 9.50002 20ZM16.5 20C16.3674 20 16.2402 20.0527 16.1465 20.1464C16.0527 20.2402 16 20.3674 16 20.5C16 20.6326 16.0527 20.7598 16.1465 20.8535C16.2402 20.9473 16.3674 21 16.5 21C16.6326 21 16.7598 20.9473 16.8536 20.8535C16.9473 20.7598 17 20.6326 17 20.5C17 20.3674 16.9473 20.2402 16.8536 20.1464C16.7598 20.0527 16.6326 20 16.5 20ZM6.63002 14.73C6.68493 15.0838 6.86462 15.4064 7.1366 15.6393C7.40859 15.8722 7.75493 16.0001 8.11302 16H20V17H8.11302C7.51674 16.9999 6.9401 16.7868 6.48717 16.3989C6.03424 16.0111 5.73485 15.4741 5.64302 14.885L4.03302 4.55797L1.97302 2.77797L2.62602 2.02197L4.91702 3.99997H20.18C20.4019 3.99996 20.6211 4.04919 20.8217 4.14411C21.0223 4.23903 21.1993 4.37728 21.34 4.54888C21.4808 4.72049 21.5816 4.92119 21.6354 5.13649C21.6892 5.3518 21.6945 5.57636 21.651 5.79397L20.411 11.99C20.2978 12.5565 19.9918 13.0663 19.5452 13.4328C19.0985 13.7992 18.5388 13.9996 17.961 14H8.00002V13H17.96C18.3068 13 18.6429 12.8798 18.9111 12.66C19.1793 12.4401 19.363 12.1341 19.431 11.794L20.671 5.59797C20.6855 5.52538 20.6837 5.45047 20.6658 5.37865C20.6478 5.30683 20.6141 5.2399 20.5672 5.18269C20.5202 5.12547 20.4611 5.0794 20.3941 5.0478C20.3272 5.01621 20.2541 4.99987 20.18 4.99997H5.11302L6.63002 14.73Z" fill="#333333"/>
</svg>
