<svg width="28" height="28" viewBox="0 0 28 29" fill="none" xmlns="http://www.w3.org/2000/svg">
<g clip-path="url(#clip0_2019_74)">
<path d="M14 4.44C20.32 4.44 25.5 8.88 25.5 14.44C25.5 20 20.32 24.44 14 24.44C12.645 24.44 11.322 24.236 10.076 23.843C8.67402 25.149 6.61802 25.837 3.95202 25.941C3.70782 25.9506 3.46524 25.8975 3.24729 25.787C3.02935 25.6764 2.84327 25.512 2.70672 25.3094C2.57017 25.1067 2.48768 24.8725 2.46708 24.629C2.44648 24.3855 2.48845 24.1407 2.58902 23.918C3.50002 21.903 4.00202 20.42 4.10302 19.539C3.06202 18.013 2.50002 16.263 2.50002 14.44C2.50002 8.88 7.68002 4.44 14 4.44ZM14 6.44C8.72202 6.44 4.50002 10.059 4.50002 14.44C4.50002 15.948 4.99702 17.395 5.92602 18.653C6.054 18.826 6.12274 19.0358 6.12202 19.251C6.11802 20.298 5.67202 21.818 4.79202 23.878C6.77902 23.67 8.18002 23.047 9.03702 22.041C9.17035 21.8849 9.34849 21.7736 9.54726 21.7223C9.74602 21.6709 9.95576 21.682 10.148 21.754C11.35 22.204 12.654 22.44 14 22.44C19.278 22.44 23.5 18.821 23.5 14.44C23.5 10.059 19.278 6.44 14 6.44Z" fill="#99A2AD"/>
</g>
<defs>
<clipPath id="clip0_2019_74">
<rect width="30" height="30" fill="white" transform="translate(0 0.940002)"/>
</clipPath>
</defs>
</svg>
