<svg width="24" height="24" viewBox="0 0 24 24" fill="none" xmlns="http://www.w3.org/2000/svg">
<path fill-rule="evenodd" clip-rule="evenodd" d="M14.8409 5.975L14.7779 5.805L14.6529 5.471L14.3769 4.733C14.2477 4.3818 14.1143 4.03211 13.9769 3.684C13.8169 3.304 13.3469 3 12.8959 3H11.1039C10.6539 3 10.1859 3.305 10.0039 3.726C9.78547 4.30757 9.56813 4.88957 9.35194 5.472L9.23094 5.804L9.16894 5.972L8.15094 6.569L7.97094 6.539L7.62094 6.479L6.84494 6.346C6.46033 6.27864 6.07498 6.21563 5.68894 6.157C5.27094 6.103 4.76894 6.354 4.54494 6.737L3.64994 8.268C3.42794 8.648 3.46194 9.195 3.73994 9.559C3.75694 9.584 4.04794 9.933 4.43994 10.397L4.94794 11L5.17594 11.27L5.30294 11.42L5.29394 11.615L5.28894 11.763L5.28594 11.849C5.27983 12.021 5.28184 12.1932 5.29194 12.365L5.30894 12.572L5.17494 12.73L4.94394 13.004C4.77094 13.209 4.59694 13.414 4.43594 13.607C4.03294 14.087 3.74794 14.428 3.71194 14.477C3.45894 14.804 3.42794 15.351 3.64994 15.732L4.54594 17.263C4.76994 17.646 5.27194 17.893 5.73594 17.838C5.76594 17.835 6.21794 17.759 6.82094 17.656L7.60594 17.521L7.94894 17.461L8.12494 17.431L9.15694 18.011L9.22094 18.183C9.35445 18.5429 9.48845 18.9025 9.62294 19.262C9.84294 19.848 9.99894 20.261 10.0249 20.316C10.1849 20.696 10.6549 21 11.1049 21H12.8969C13.3469 21 13.8149 20.695 13.9969 20.274C14.0089 20.246 14.1679 19.826 14.3789 19.264L14.6559 18.523L14.7789 18.191L14.8409 18.023L15.8559 17.433L16.0339 17.463C16.6773 17.5704 17.3206 17.6777 17.9639 17.785L18.3059 17.842C18.7299 17.897 19.2319 17.647 19.4559 17.263L20.3519 15.732C20.5739 15.352 20.5399 14.805 20.2619 14.441C20.0311 14.1615 19.7981 13.8838 19.5629 13.608L19.0549 13.008L18.8249 12.738L18.6989 12.589L18.7069 12.393L18.7129 12.242L18.7159 12.154C18.7214 12.004 18.7211 11.8539 18.7149 11.704C18.714 11.6783 18.7127 11.6526 18.7109 11.627L18.6969 11.424L18.8279 11.268L19.0589 10.995C19.2319 10.79 19.4059 10.585 19.5669 10.392C19.9699 9.913 20.2539 9.572 20.2899 9.522C20.5429 9.196 20.5739 8.649 20.3519 8.268L19.4559 6.737C19.2319 6.354 18.7299 6.107 18.2659 6.162C18.2349 6.165 17.7829 6.24 17.1779 6.342L16.3919 6.477C16.1159 6.524 16.1159 6.524 16.0479 6.537L15.8699 6.567L14.8419 5.975H14.8409ZM16.0549 5.52C16.3653 5.46665 16.6756 5.41332 16.9859 5.36C17.3764 5.29076 17.7678 5.22675 18.1599 5.168C19.0029 5.066 19.8919 5.503 20.3179 6.232L21.2139 7.763C21.6409 8.493 21.5849 9.483 21.0899 10.121C21.0409 10.189 20.7899 10.491 20.3379 11.028L19.8219 11.64L19.7159 11.766C19.7177 11.905 19.7171 12.044 19.7139 12.183C19.7324 12.2497 19.7675 12.3106 19.8159 12.36L20.3199 12.955C20.7899 13.509 21.0309 13.798 21.0659 13.847C21.5799 14.521 21.6409 15.506 21.2139 16.237L20.3179 17.768C19.8919 18.497 19.0009 18.94 18.1919 18.836L17.7989 18.771L17.0129 18.64L16.0459 18.478L15.6529 18.707L15.5919 18.872L15.3189 19.602C15.1866 19.9642 15.0492 20.3246 14.9069 20.683C14.5739 21.458 13.7449 22 12.8959 22H11.1039C10.2559 22 9.41994 21.46 9.10894 20.72C9.07394 20.644 8.93594 20.28 8.69094 19.627L8.40794 18.869L8.34594 18.703L7.94394 18.477C7.63361 18.5303 7.32328 18.5837 7.01294 18.637C6.62289 18.7076 6.23185 18.7726 5.83994 18.832C4.99694 18.934 4.10794 18.496 3.68194 17.768L2.78594 16.237C2.35894 15.507 2.41494 14.517 2.90994 13.879C2.95994 13.811 3.20994 13.509 3.66294 12.971L4.17894 12.359L4.28494 12.234C4.28211 12.0963 4.28211 11.9587 4.28494 11.821C4.26094 11.738 4.22694 11.698 4.18294 11.645L3.67894 11.048C3.21094 10.493 2.96894 10.202 2.93394 10.154C2.68144 9.81232 2.53312 9.40491 2.50686 8.98086C2.4806 8.55682 2.57752 8.13422 2.78594 7.764L3.68194 6.232C4.10694 5.505 4.99794 5.06 5.79894 5.164C5.88394 5.171 6.27894 5.236 6.98294 5.355L7.78894 5.493L7.95894 5.522L8.35394 5.29L8.41394 5.126C8.50594 4.878 8.59894 4.629 8.68394 4.396C8.81477 4.0344 8.95079 3.6747 9.09194 3.317C9.42594 2.542 10.2549 2 11.1039 2H12.8959C13.7439 2 14.5799 2.54 14.8909 3.28C14.9259 3.356 15.0639 3.718 15.3079 4.367L15.5899 5.121L15.6519 5.288L16.0549 5.52ZM11.9999 15C12.7956 15 13.5587 14.6839 14.1213 14.1213C14.6839 13.5587 14.9999 12.7956 14.9999 12C14.9999 11.2044 14.6839 10.4413 14.1213 9.87868C13.5587 9.31607 12.7956 9 11.9999 9C11.2043 9 10.4412 9.31607 9.87862 9.87868C9.31601 10.4413 8.99994 11.2044 8.99994 12C8.99994 12.7956 9.31601 13.5587 9.87862 14.1213C10.4412 14.6839 11.2043 15 11.9999 15ZM11.9999 16C10.9391 16 9.92166 15.5786 9.17151 14.8284C8.42137 14.0783 7.99994 13.0609 7.99994 12C7.99994 10.9391 8.42137 9.92172 9.17151 9.17157C9.92166 8.42143 10.9391 8 11.9999 8C13.0608 8 14.0782 8.42143 14.8284 9.17157C15.5785 9.92172 15.9999 10.9391 15.9999 12C15.9999 13.0609 15.5785 14.0783 14.8284 14.8284C14.0782 15.5786 13.0608 16 11.9999 16Z" fill="#333333"/>
</svg>
