<svg width="17" height="17" viewBox="0 0 17 17" fill="none" xmlns="http://www.w3.org/2000/svg">
    <path opacity="0.48" fill-rule="evenodd" clip-rule="evenodd"
    d="M8.77904 0.510498C10.8593 0.510498 12.8543 1.33686 14.3252 2.80781C15.7962 4.27875 16.6225 6.27377 16.6225 8.354C16.6225 10.4342 15.7962 12.4292 14.3252 13.9002C12.8543 15.3711 10.8593 16.1975 8.77904 16.1975C6.69894 16.1975 4.70404 15.3712 3.2332 13.9003C1.76235 12.4295 0.936035 10.4346 0.936035 8.3545C0.936035 6.27441 1.76235 4.27951 3.2332 2.80866C4.70404 1.33781 6.69894 0.510498 8.77904 0.510498ZM8.77904 1.4915C7.87777 1.4915 6.98534 1.66901 6.15268 2.01391C5.32002 2.35881 4.56345 2.86434 3.92616 3.50162C3.28887 4.13891 2.78335 4.89548 2.43845 5.72814C2.09355 6.5608 1.91603 7.45324 1.91603 8.3545C1.91603 9.25576 2.09355 10.1482 2.43845 10.9809C2.78335 11.8135 3.28887 12.5701 3.92616 13.2074C4.56345 13.8447 5.32002 14.3502 6.15268 14.6951C6.98534 15.04 7.87777 15.2175 8.77904 15.2175C10.5992 15.2175 12.3448 14.4944 13.6319 13.2074C14.919 11.9203 15.642 10.1747 15.642 8.3545C15.642 6.53432 14.919 4.78869 13.6319 3.50162C12.3448 2.21456 10.5992 1.4915 8.77904 1.4915ZM9.51403 7.4235V12.3255H8.04503V7.4235H9.51504H9.51403ZM8.77904 4.4335C8.90773 4.4335 9.03516 4.45885 9.15406 4.5081C9.27296 4.55735 9.381 4.62953 9.472 4.72053C9.563 4.81153 9.63519 4.91957 9.68444 5.03847C9.73369 5.15737 9.75904 5.2848 9.75904 5.4135C9.75904 5.54219 9.73369 5.66963 9.68444 5.78853C9.63519 5.90743 9.563 6.01546 9.472 6.10646C9.381 6.19746 9.27296 6.26965 9.15406 6.3189C9.03516 6.36815 8.90773 6.3935 8.77904 6.3935C8.51912 6.3935 8.26986 6.29025 8.08607 6.10646C7.90229 5.92268 7.79904 5.67341 7.79904 5.4135C7.79904 5.15359 7.90229 4.90432 8.08607 4.72053C8.26986 4.53675 8.51912 4.4335 8.77904 4.4335Z"
    fill="#858585" />
</svg>
