<svg width="12" height="17" viewBox="0 0 12 17" fill="none" xmlns="http://www.w3.org/2000/svg">
    <path
    d="M5.99055 8.07551C9.27939 8.07551 11.9884 9.39504 11.9884 11.0744C11.7485 11.6043 11.4586 12.1041 11.1187 12.6039C9.90754 14.4579 8.09763 15.8409 5.99055 16.5225C3.88347 15.8409 2.07356 14.4579 0.862368 12.6039C0.522488 12.1041 0.232591 11.6043 -0.00732422 11.0744C-0.00732422 9.42503 2.70172 8.07551 5.99055 8.07551ZM5.99055 0.608154C6.78592 0.608154 7.54871 0.924113 8.11112 1.48652C8.67353 2.04893 8.98949 2.81172 8.98949 3.60709C8.98949 4.40246 8.67353 5.16525 8.11112 5.72766C7.54871 6.29007 6.78592 6.60603 5.99055 6.60603C5.19518 6.60603 4.43239 6.29007 3.86998 5.72766C3.30757 5.16525 2.99161 4.40246 2.99161 3.60709C2.99161 2.81172 3.30757 2.04893 3.86998 1.48652C4.43239 0.924113 5.19518 0.608154 5.99055 0.608154Z"
    fill="white" />
</svg>
