<svg width="21" height="19" viewBox="0 0 21 19" fill="none" xmlns="http://www.w3.org/2000/svg">
<path d="M11.083 2.923L10.75 3.22L10.417 2.922C9.237 1.868 7.979 1.25 6.75 1.25C3.712 1.25 1.75 3.212 1.75 6.25C1.75 10.26 4.994 13.906 10.592 17.225C10.6436 17.2473 10.6993 17.2584 10.7554 17.2577C10.8116 17.257 10.867 17.2445 10.918 17.221C16.522 13.865 19.75 10.246 19.75 6.25C19.75 3.212 17.788 1.25 14.75 1.25C13.521 1.25 12.262 1.868 11.083 2.923ZM14.75 0.25C18.34 0.25 20.75 2.66 20.75 6.25C20.75 10.702 17.31 14.558 11.439 18.074C11.045 18.32 10.459 18.32 10.073 18.08C4.21 14.603 0.75 10.716 0.75 6.25C0.75 2.66 3.16 0.25 6.75 0.25C8.14 0.25 9.496 0.86 10.75 1.891C12.004 0.86 13.36 0.25 14.75 0.25Z" fill="#333333"/>
</svg>
