<svg width="24" height="24" viewBox="0 0 24 24" fill="none" xmlns="http://www.w3.org/2000/svg">
<path fill-rule="evenodd" clip-rule="evenodd" d="M6.077 14C6.746 14 6.988 14.07 7.233 14.2C7.477 14.331 7.669 14.523 7.8 14.767C7.93 15.012 8 15.254 8 15.923V17.077C8 17.746 7.93 17.988 7.8 18.233C7.67173 18.4743 7.47428 18.6717 7.233 18.8C6.988 18.93 6.746 19 6.077 19H4.923C4.254 19 4.012 18.93 3.767 18.8C3.52542 18.6721 3.32787 18.4746 3.2 18.233C3.07 17.988 3 17.746 3 17.077V15.923C3 15.254 3.07 15.012 3.2 14.767C3.331 14.523 3.523 14.331 3.767 14.2C4.012 14.07 4.254 14 4.923 14H6.077ZM6.217 15H4.924C4.465 15 4.354 15.022 4.24 15.082C4.17259 15.1167 4.11771 15.1716 4.083 15.239C4.029 15.339 4.006 15.439 4.002 15.782L4 17.077C4 17.536 4.022 17.647 4.082 17.761C4.12 17.831 4.169 17.881 4.239 17.918C4.352 17.978 4.464 18 4.923 18H6.077C6.536 18 6.647 17.978 6.761 17.918C6.82841 17.8833 6.88329 17.8284 6.918 17.761C6.978 17.648 7 17.536 7 17.077V15.923C7 15.464 6.978 15.353 6.918 15.239C6.88329 15.1716 6.82841 15.1167 6.761 15.082C6.661 15.028 6.561 15.005 6.218 15.001L6.217 15ZM21 16V17H10V16H21ZM6.077 5C6.746 5 6.988 5.07 7.233 5.2C7.477 5.331 7.669 5.523 7.8 5.767C7.93 6.012 8 6.254 8 6.923V8.077C8 8.746 7.93 8.988 7.8 9.233C7.67173 9.47428 7.47428 9.67173 7.233 9.8C6.988 9.93 6.746 10 6.077 10H4.923C4.254 10 4.012 9.93 3.767 9.8C3.52542 9.67213 3.32787 9.47458 3.2 9.233C3.07 8.988 3 8.746 3 8.077V6.923C3 6.254 3.07 6.012 3.2 5.767C3.331 5.523 3.523 5.331 3.767 5.2C4.012 5.07 4.254 5 4.923 5H6.077ZM6.217 6H4.924C4.465 6 4.354 6.022 4.24 6.082C4.17259 6.11671 4.11771 6.17159 4.083 6.239C4.029 6.339 4.006 6.439 4.002 6.782L4 8.077C4 8.536 4.022 8.647 4.082 8.761C4.12 8.831 4.169 8.881 4.239 8.918C4.352 8.978 4.464 9 4.923 9H6.077C6.536 9 6.647 8.978 6.761 8.918C6.82841 8.88329 6.88329 8.82841 6.918 8.761C6.978 8.648 7 8.536 7 8.077V6.923C7 6.464 6.978 6.353 6.918 6.239C6.88329 6.17159 6.82841 6.11671 6.761 6.082C6.661 6.028 6.561 6.005 6.218 6.001L6.217 6ZM21 7V8H10V7H21Z" fill="#333333"/>
</svg>
