<svg width="28" height="28" viewBox="0 0 28 29" fill="none" xmlns="http://www.w3.org/2000/svg">
<g clip-path="url(#clip0_2011_153)">
<path d="M14 2.18994C20.627 2.18994 26 7.56294 26 14.1899C26 20.8169 20.627 26.1899 14 26.1899C7.373 26.1899 2 20.8169 2 14.1899C2 7.56294 7.373 2.18994 14 2.18994ZM14 4.18994C8.477 4.18994 4 8.66694 4 14.1899C4 19.7129 8.477 24.1899 14 24.1899C19.523 24.1899 24 19.7129 24 14.1899C24 8.66694 19.523 4.18994 14 4.18994ZM15.673 8.68994C16.6444 8.68994 17.5759 9.07581 18.2628 9.76266C18.9496 10.4495 19.3355 11.3811 19.3355 12.3524C19.3355 13.3238 18.9496 14.2554 18.2628 14.9422C17.5759 15.6291 16.6444 16.0149 15.673 16.0149L13.215 16.0139V17.4169H14.852C15.0691 17.4169 15.2773 17.5032 15.4308 17.6567C15.5843 17.8102 15.6705 18.0184 15.6705 18.2354C15.6705 18.4525 15.5843 18.6607 15.4308 18.8142C15.2773 18.9677 15.0691 19.0539 14.852 19.0539L13.215 19.0529V19.8329C13.215 20.0602 13.1247 20.2782 12.964 20.4389C12.8033 20.5997 12.5853 20.6899 12.358 20.6899H12.218C11.9907 20.6899 11.7727 20.5997 11.612 20.4389C11.4513 20.2782 11.361 20.0602 11.361 19.8329L11.36 19.0529H10.488C10.2711 19.0529 10.063 18.9668 9.90959 18.8134C9.75618 18.66 9.67 18.4519 9.67 18.2349C9.67 18.018 9.75618 17.8099 9.90959 17.6565C10.063 17.5031 10.2711 17.4169 10.488 17.4169H11.36V16.0139H10.527C10.2999 16.0139 10.0821 15.9238 9.92136 15.7633C9.76067 15.6028 9.67027 15.3851 9.67 15.1579V15.0019C9.67 14.5279 10.054 14.1449 10.527 14.1449L11.36 14.1439V9.54694C11.36 9.07394 11.745 8.68994 12.218 8.68994H15.673ZM15.709 10.4039H13.215V14.1439H15.709C16.205 14.1439 16.6806 13.9469 17.0313 13.5962C17.382 13.2455 17.579 12.7699 17.579 12.2739C17.579 11.778 17.382 11.3023 17.0313 10.9517C16.6806 10.601 16.205 10.4039 15.709 10.4039Z" fill="#99A2AD"/>
</g>
<defs>
<clipPath id="clip0_2011_153">
<rect width="30" height="30" fill="white" transform="translate(0 0.189941)"/>
</clipPath>
</defs>
</svg>
