<svg width="28" height="29" viewBox="0 0 28 29" fill="none" xmlns="http://www.w3.org/2000/svg">
<path d="M13.484 2.19192C13.834 2.14192 14.166 2.14192 14.516 2.19192C14.861 2.24192 15.149 2.31892 15.812 2.53992L22.632 4.81292C23.0304 4.94562 23.3769 5.20035 23.6225 5.54102C23.868 5.88168 24.0001 6.29099 24 6.71092V15.9899C24 20.7839 21.122 24.4569 15.542 26.9319L15.174 27.0919C14.8027 27.2498 14.4034 27.3312 14 27.3312C13.5966 27.3312 13.1973 27.2498 12.826 27.0919C7.007 24.6199 4 20.8919 4 15.9899V6.70992C4.00011 6.29016 4.13229 5.88108 4.37781 5.54061C4.62333 5.20015 4.96975 4.94556 5.368 4.81292L12.376 2.47792C12.909 2.30392 13.173 2.23592 13.484 2.19192ZM14.234 4.17192C14.0792 4.14877 13.9218 4.14877 13.767 4.17192C13.567 4.19992 13.378 4.25192 12.82 4.43692L6 6.71092V15.9899C6 20.0059 8.471 23.0679 13.609 25.2509C13.859 25.3579 14.141 25.3579 14.384 25.2549L14.738 25.1009C19.641 22.9259 22 19.9159 22 15.9899V6.70992L15.023 4.38492C14.8042 4.30801 14.5812 4.24391 14.355 4.19292L14.233 4.17192H14.234Z" fill="#99A2AD"/>
<path d="M19.057 11.383C18.8695 11.1955 18.6152 11.0902 18.35 11.0902C18.0848 11.0902 17.8305 11.1955 17.643 11.383L12.75 16.276L10.857 14.383C10.6684 14.2008 10.4158 14.1 10.1536 14.1023C9.89141 14.1046 9.64059 14.2098 9.45519 14.3952C9.26978 14.5806 9.16461 14.8314 9.16233 15.0936C9.16005 15.3558 9.26085 15.6084 9.443 15.797L12.043 18.397C12.2305 18.5845 12.4848 18.6898 12.75 18.6898C13.0152 18.6898 13.2695 18.5845 13.457 18.397L19.057 12.797C19.2445 12.6095 19.3498 12.3552 19.3498 12.09C19.3498 11.8248 19.2445 11.5705 19.057 11.383Z" fill="#99A2AD"/>
</svg>
