<svg xmlns="http://www.w3.org/2000/svg" width="14" height="14" fill="none" viewBox="0 0 14 14">
  <path fill="#EBEBEB" fill-rule="evenodd" d="m7 11.523 3.689 2.352a.5.5 0 0 0 .757-.53l-.991-4.508 3.338-3.058a.5.5 0 0 0-.292-.866l-4.375-.397L7.442.314A.5.5 0 0 0 7 0v11.523Z" clip-rule="evenodd"/>
  <path fill="#FFCD4B" fill-rule="evenodd" d="M7 0a.5.5 0 0 0-.49.314L4.825 4.513.453 4.91a.5.5 0 0 0-.291.865l3.335 3.056-.99 4.506a.5.5 0 0 0 .757.529l3.71-2.364.026.016V.002Z" clip-rule="evenodd"/>
</svg>
