<svg width="18" height="18" viewBox="0 0 18 18" fill="none" xmlns="http://www.w3.org/2000/svg">
<path d="M12.29 11.584L18.01 17.304L17.303 18.01L11.583 12.29C10.2126 13.4773 8.43491 14.0865 6.62431 13.9893C4.8137 13.8922 3.11144 13.0962 1.87594 11.7691C0.640441 10.442 -0.0318911 8.68723 0.000508543 6.87431C0.0329082 5.06139 0.767512 3.33178 2.04964 2.04964C3.33178 0.767512 5.06139 0.0329082 6.87431 0.000508543C8.68723 -0.0318911 10.442 0.640441 11.7691 1.87594C13.0962 3.11144 13.8922 4.8137 13.9893 6.62431C14.0865 8.43491 13.4773 10.2136 12.29 11.584ZM7 13C8.5913 13 10.1174 12.3679 11.2426 11.2426C12.3679 10.1174 13 8.5913 13 7C13 5.4087 12.3679 3.88258 11.2426 2.75736C10.1174 1.63214 8.5913 0.999999 7 0.999999C5.4087 0.999999 3.88258 1.63214 2.75736 2.75736C1.63214 3.88258 0.999999 5.4087 0.999999 7C0.999999 8.5913 1.63214 10.1174 2.75736 11.2426C3.88258 12.3679 5.4087 13 7 13Z" fill="#333333"/>
</svg>
